<?xml version="1.0" encoding="utf-8"?>
<!-- Generator: Adobe Illustrator 25.2.1, SVG Export Plug-In . SVG Version: 6.00 Build 0)  -->
<svg version="1.1" id="Layer_1" xmlns="http://www.w3.org/2000/svg" xmlns:xlink="http://www.w3.org/1999/xlink" x="0px" y="0px"
	 viewBox="0 0 81 63" style="enable-background:new 0 0 81 63;" xml:space="preserve">
<style type="text/css">
	.st0{fill-rule:evenodd;clip-rule:evenodd;fill:#CDCDCD;}
</style>
<path id="column-icon-top" class="st0" d="M-2-2h85v67H-2V-2z M0,0h81v63H0V0z M24,20h28v1H24V20z M24,24h34v1H24V24z M24,16h34v1
	H24V16z M24,12h34v1H24V12z M24,28h14v1H24V28z M34,42.5c0-4.7,3.8-8.5,8.5-8.5s8.5,3.8,8.5,8.5S47.2,51,42.5,51S34,47.2,34,42.5z"
	/>
</svg>
