<?xml version="1.0" standalone="no"?>
<!DOCTYPE svg PUBLIC "-//W3C//DTD SVG 1.1//EN" "http://www.w3.org/Graphics/SVG/1.1/DTD/svg11.dtd">
<svg xmlns="http://www.w3.org/2000/svg">
<metadata>Generated by Fontastic.me</metadata>
<defs>
<font id="auxin-front-2" horiz-adv-x="512">
<font-face font-family="auxin-front-2" units-per-em="512" ascent="480" descent="-32"/>
<missing-glyph horiz-adv-x="512" />

<glyph glyph-name="arrows-anticlockwise" unicode="&#97;" d="M256 512c-141 0-256-115-256-256 0-54 16-105 48-149l35-35-67 0 0-16 88 0 8 8 0 88-16 0 0-71-36 36c-29 41-44 89-44 139 0 132 108 240 240 240 132 0 240-108 240-240 0-132-108-240-240-240l0-16c141 0 256 115 256 256 0 141-115 256-256 256z"/>
<glyph glyph-name="circle-plus-outline" unicode="&#98;" d="M248 112l16 0 0 136 136 0 0 16-136 0 0 136-16 0 0-136-136 0 0-16 136 0z m8-112c0 0 0 0 0 0 68 0 133 27 181 75 48 48 75 113 75 181 0 68-27 133-75 181-48 48-113 75-181 75 0 0 0 0 0 0-68 0-133-27-181-75-48-48-75-113-75-181 0-68 27-133 75-181 48-48 113-75 181-75z m-170 426c46 45 106 70 170 70 0 0 0 0 0 0 64 0 124-25 170-70 45-46 70-106 70-170 0-64-25-124-70-170-46-45-106-70-170-70l0 0c0 0 0 0 0 0-64 0-124 25-170 70-45 46-70 106-70 170 0 64 25 124 70 170z"/>
<glyph glyph-name="arrows-drag-up-dashed" unicode="&#99;" d="M248 376l16 0 0-32-16 0z m0 96l16 0 0-32-16 0z m0-48l16 0 0-32-16 0z m0-96l16 0 0-32-16 0z m-120-200c0-71 57-128 128-128 71 0 128 57 128 128 0 68-53 123-120 128l0 24-16 0 0-24c-67-5-120-60-120-128z m128 112c62 0 112-50 112-112 0-62-50-112-112-112-62 0-112 50-112 112 0 62 50 112 112 112z m66 186l12 13-72 73-12 0-72-73 12-12 61 61 10 0z"/>
<glyph glyph-name="hamburger-2" unicode="&#100;" d="M96 352l320 0 0-16-320 0z m0-96l320 0 0-16-320 0z m0-96l320 0 0-16-320 0z"/>
<glyph glyph-name="hamburger1" unicode="&#101;" d="M0 352l48 0 0-16-48 0z m128 0l384 0 0-16-384 0z m-128-96l48 0 0-16-48 0z m128 0l384 0 0-16-384 0z m-128-96l48 0 0-16-48 0z m128 0l384 0 0-16-384 0z"/>
<glyph glyph-name="arrow-chevron-thin-left" unicode="&#102;" d="M289 398l-137-136 0-12 137-136 12 12-130 130 130 130z"/>
<glyph glyph-name="arrows-left-double-chevron" unicode="&#103;" d="M269 387l-12 11-137-136 0-11 137-136 12 11-130 131z m108 11l-137-136 0-11 137-136 12 11-130 131 130 130z"/>
<glyph glyph-name="arrows-right-double-chevron" unicode="&#104;" d="M242 386l131-130-131-130 13-12 137 136 0 12-137 136z m30-124l-137 136-12-12 130-130-131-130 13-12 137 136z"/>
<glyph glyph-name="arrows-chevron-thin-right" unicode="&#105;" d="M360 262l-137 136-12-12 130-130-131-130 13-12 137 136z"/>
<glyph glyph-name="close-remove-1" unicode="&#106;" d="M354 381l-98-99-99 98-11-11 99-98-98-99 11-11 98 99 99-98 11 11-99 98 98 99z"/>
<glyph glyph-name="plus-1" unicode="&#107;" d="M248 400l0-136-136 0 0-16 136 0 0-136 16 0 0 136 136 0 0 16-136 0 0 136z"/>
<glyph glyph-name="arrow-slim-left-dashed" unicode="&#108;" d="M336 264l32 0 0-16-32 0z m-48 0l32 0 0-16-32 0z m-48 0l32 0 0-16-32 0z m144 0l32 0 0-16-32 0z m48 0l32 0 0-16-32 0z m48 0l32 0 0-16-32 0z m-384 0l32 0 0-16-32 0z m48 0l32 0 0-16-32 0z m48 0l32 0 0-16-32 0z m-144 0l32 0 0-16-32 0z m25 70l-73-72 0-12 73-72 12 12-58 58 5 0 0 16-5 0 58 58z"/>
<glyph glyph-name="arrow-slim-left" unicode="&#109;" d="M86 322l-13 12-73-72 0-12 73-72 12 12-58 58 485 0 0 16-485 0z"/>
<glyph glyph-name="arrow-slim-right-dashed" unicode="&#112;" d="M192 264l32 0 0-16-32 0z m-144 0l32 0 0-16-32 0z m48 0l32 0 0-16-32 0z m48 0l32 0 0-16-32 0z m-144 0l32 0 0-16-32 0z m432 0l32 0 0-16-32 0z m-48 0l32 0 0-16-32 0z m-48 0l32 0 0-16-32 0z m-48 0l32 0 0-16-32 0z m-48 0l32 0 0-16-32 0z m199-86l73 72 0 12-73 72-12-12 58-58-5 0 0-16 5 0-58-58z"/>
<glyph glyph-name="arrow-slim-right" unicode="&#113;" d="M426 190l13-12 73 72 0 12-73 72-12-12 58-58-485 0 0-16 485 0z"/>
<glyph glyph-name="arrow-chevron-thin-up" unicode="&#110;" d="M398 199l-136 137-12 0-136-137 12-12 130 130 130-130z"/>
<glyph glyph-name="arrows-up-double-chevron" unicode="&#111;" d="M250 392l-136-137 12-12 130 130 130-130 12 12-136 137z m0-120l-136-137 12-12 130 130 130-130 12 12-136 137z"/>
<glyph glyph-name="square-plus-outline" unicode="&#114;" d="M248 112l16 0 0 136 136 0 0 16-136 0 0 136-16 0 0-136-136 0 0-16 136 0z m-248 400l0-512 512 0 0 512z m496-496l-480 0 0 480 480 0z"/>
<glyph glyph-name="arrows-down-double-chevron" unicode="&#115;" d="M255 139l-130 131-11-13 136-137 11 0 136 137-11 12z m0 120l-130 131-11-13 136-137 11 0 136 137-11 12z"/>
<glyph glyph-name="arrows-chevron-down" unicode="&#116;" d="M386 326l-130-131-130 131-12-13 136-137 12 0 136 137z"/>
<glyph glyph-name="basic-bookmark" unicode="&#117;" d="M136-3l120 120 120-120 0 515-240 0z m16 499l208 0 0-461-104 104-104-104z"/>
<glyph glyph-name="arrow-medium-right" unicode="&#118;" d="M495 252l-153 154c-5 5-13 5-18 0-5-5-5-13 0-18l131-132-417 0c-7 0-12-6-12-13 0-7 5-12 12-12l417 0-131-132c-5-5-5-13 0-18 2-3 6-4 9-4 3 0 6 1 9 4l153 153c5 5 5 13 0 18z"/>
<glyph glyph-name="arrow-medium-left" unicode="&#119;" d="M17 252l153 154c5 5 13 5 18 0 5-5 5-13 0-18l-131-132 417 0c7 0 12-6 12-13 0-7-5-12-12-12l-417 0 131-132c5-5 5-13 0-18-2-3-6-4-9-4-3 0-6 1-9 4l-153 153c-5 5-5 13 0 18z"/>
<glyph glyph-name="arrow-chevron-med-right" unicode="&#120;" d="M128 0c-3 0-7 1-9 4-5 5-5 13 0 18l221 221-221 222c-5 5-5 13 0 18 5 5 13 5 18 0l230-231c5-5 5-13 0-18l-230-230c-2-3-6-4-9-4z"/>
<glyph glyph-name="arrow-chevron-med-left" unicode="&#121;" d="M358 0c4 0 7 1 9 4 5 5 5 13 0 18l-221 221 221 222c5 5 5 13 0 18-5 5-13 5-18 0l-230-231c-5-5-5-13 0-18l230-230c3-3 6-4 9-4z"/>
<glyph glyph-name="arrow-chevron-fat-top" unicode="&#122;" d="M502 156l0 10-10 0 0 10-10 0 0 10-10 0 0 10-10 0 0 10-10 0 0 10-10 0 0 10-10 0 0 10-10 0 0 10-10 0 0 10-10 0 0 10-10 0 0 10-11 0 0 10-10 0 0 10-10 0 0 10-10 0 0 10-10 0 0 10-10 0 0 10-10 0 0 10-10 0 0 10-10 0 0 10-10 0 0 10-10 0 0 11-10 0 0 10-10 0 0 10-10 0 0-10-10 0 0-10-10 0 0-11-10 0 0-10-10 0 0-10-10 0 0-10-10 0 0-10-10 0 0-10-10 0 0-10-10 0 0-10-10 0 0-10-10 0 0-10-10 0 0-10-11 0 0-10-10 0 0-10-10 0 0-10-10 0 0-10-10 0 0-10-10 0 0-10-10 0 0-10-10 0 0-10-10 0 0-10-10 0 0-10-10 0 0-10-10 0 0-10-10 0 0-10 10 0 0-10 10 0 0-11 10 0 0-10 10 0 0-10 10 0 0 10 10 0 0 10 10 0 0 11 10 0 0 10 10 0 0 10 10 0 0 10 10 0 0 10 10 0 0 10 11 0 0 10 10 0 0 10 10 0 0 10 10 0 0 10 10 0 0 10 10 0 0 10 10 0 0 10 10 0 0 10 10 0 0 10 10 0 0 10 10 0 0 10 10 0 0 10 10 0 0 10 10 0 0-10 10 0 0-10 10 0 0-10 10 0 0-10 10 0 0-10 10 0 0-10 10 0 0-10 10 0 0-10 10 0 0-10 10 0 0-10 10 0 0-10 10 0 0-10 10 0 0-10 11 0 0-10 10 0 0-10 10 0 0-10 10 0 0-10 10 0 0-10 10 0 0-11 10 0 0-10 10 0 0-10 10 0 0 10 10 0 0 10 10 0 0 11 10 0 0 10 10 0 0 10z"/>
<glyph glyph-name="arrow-chevron-fat-down" unicode="&#65;" d="M502 356l0-10-10 0 0-10-10 0 0-10-10 0 0-10-10 0 0-10-10 0 0-10-10 0 0-10-10 0 0-10-10 0 0-10-10 0 0-10-10 0 0-10-10 0 0-10-11 0 0-10-10 0 0-10-10 0 0-10-10 0 0-10-10 0 0-10-10 0 0-10-10 0 0-10-10 0 0-10-10 0 0-10-10 0 0-10-10 0 0-11-10 0 0-10-10 0 0-10-10 0 0 10-10 0 0 10-10 0 0 11-10 0 0 10-10 0 0 10-10 0 0 10-10 0 0 10-10 0 0 10-10 0 0 10-10 0 0 10-10 0 0 10-10 0 0 10-10 0 0 10-11 0 0 10-10 0 0 10-10 0 0 10-10 0 0 10-10 0 0 10-10 0 0 10-10 0 0 10-10 0 0 10-10 0 0 10-10 0 0 10-10 0 0 10-10 0 0 10-10 0 0 10 10 0 0 10 10 0 0 11 10 0 0 10 10 0 0 10 10 0 0-10 10 0 0-10 10 0 0-11 10 0 0-10 10 0 0-10 10 0 0-10 10 0 0-10 10 0 0-10 11 0 0-10 10 0 0-10 10 0 0-10 10 0 0-10 10 0 0-10 10 0 0-10 10 0 0-10 10 0 0-10 10 0 0-10 10 0 0-10 10 0 0-10 10 0 0-10 10 0 0-10 10 0 0 10 10 0 0 10 10 0 0 10 10 0 0 10 10 0 0 10 10 0 0 10 10 0 0 10 10 0 0 10 10 0 0 10 10 0 0 10 10 0 0 10 10 0 0 10 10 0 0 10 11 0 0 10 10 0 0 10 10 0 0 10 10 0 0 10 10 0 0 10 10 0 0 11 10 0 0 10 10 0 0 10 10 0 0-10 10 0 0-10 10 0 0-11 10 0 0-10 10 0 0-10z"/>
<glyph glyph-name="arrow-chevron-fat-right" unicode="&#66;" d="M156 10l10 0 0 10 10 0 0 10 10 0 0 10 10 0 0 10 10 0 0 10 10 0 0 10 10 0 0 10 10 0 0 10 10 0 0 10 10 0 0 10 10 0 0 10 10 0 0 11 10 0 0 10 10 0 0 10 10 0 0 10 10 0 0 10 10 0 0 10 10 0 0 10 10 0 0 10 10 0 0 10 10 0 0 10 10 0 0 10 11 0 0 10 10 0 0 10 10 0 0 10-10 0 0 10-10 0 0 10-11 0 0 10-10 0 0 10-10 0 0 10-10 0 0 10-10 0 0 10-10 0 0 10-10 0 0 10-10 0 0 10-10 0 0 10-10 0 0 10-10 0 0 11-10 0 0 10-10 0 0 10-10 0 0 10-10 0 0 10-10 0 0 10-10 0 0 10-10 0 0 10-10 0 0 10-10 0 0 10-10 0 0 10-10 0 0 10-10 0 0 10-10 0 0-10-10 0 0-10-11 0 0-10-10 0 0-10-10 0 0-10 10 0 0-10 10 0 0-10 11 0 0-10 10 0 0-10 10 0 0-10 10 0 0-10 10 0 0-10 10 0 0-11 10 0 0-10 10 0 0-10 10 0 0-10 10 0 0-10 10 0 0-10 10 0 0-10 10 0 0-10 10 0 0-10 10 0 0-10 10 0 0-10 10 0 0-10 10 0 0-10 10 0 0-10-10 0 0-10-10 0 0-10-10 0 0-10-10 0 0-10-10 0 0-10-10 0 0-10-10 0 0-10-10 0 0-10-10 0 0-10-10 0 0-10-10 0 0-10-10 0 0-10-10 0 0-11-10 0 0-10-10 0 0-10-10 0 0-10-10 0 0-10-10 0 0-10-11 0 0-10-10 0 0-10-10 0 0-10 10 0 0-10 10 0 0-10 11 0 0-10 10 0 0-10 10 0z"/>
<glyph glyph-name="arrow-chevron-fat-left" unicode="&#67;" d="M356 10l-10 0 0 10-10 0 0 10-10 0 0 10-10 0 0 10-10 0 0 10-10 0 0 10-10 0 0 10-10 0 0 10-10 0 0 10-10 0 0 10-10 0 0 10-10 0 0 11-10 0 0 10-10 0 0 10-10 0 0 10-10 0 0 10-10 0 0 10-10 0 0 10-10 0 0 10-10 0 0 10-10 0 0 10-10 0 0 10-11 0 0 10-10 0 0 10-10 0 0 10 10 0 0 10 10 0 0 10 11 0 0 10 10 0 0 10 10 0 0 10 10 0 0 10 10 0 0 10 10 0 0 10 10 0 0 10 10 0 0 10 10 0 0 10 10 0 0 10 10 0 0 11 10 0 0 10 10 0 0 10 10 0 0 10 10 0 0 10 10 0 0 10 10 0 0 10 10 0 0 10 10 0 0 10 10 0 0 10 10 0 0 10 10 0 0 10 10 0 0 10 10 0 0-10 10 0 0-10 11 0 0-10 10 0 0-10 10 0 0-10-10 0 0-10-10 0 0-10-11 0 0-10-10 0 0-10-10 0 0-10-10 0 0-10-10 0 0-10-10 0 0-11-10 0 0-10-10 0 0-10-10 0 0-10-10 0 0-10-10 0 0-10-10 0 0-10-10 0 0-10-10 0 0-10-10 0 0-10-10 0 0-10-10 0 0-10-10 0 0-10-10 0 0-10 10 0 0-10 10 0 0-10 10 0 0-10 10 0 0-10 10 0 0-10 10 0 0-10 10 0 0-10 10 0 0-10 10 0 0-10 10 0 0-10 10 0 0-10 10 0 0-10 10 0 0-11 10 0 0-10 10 0 0-10 10 0 0-10 10 0 0-10 10 0 0-10 11 0 0-10 10 0 0-10 10 0 0-10-10 0 0-10-10 0 0-10-11 0 0-10-10 0 0-10-10 0z"/>
<glyph glyph-name="arrow-chevron-slim-top" unicode="&#68;" d="M493 123l0 19 19 0 0-19z m-19 38l19 0 0-19-19 0z m-19 19l19 0 0-19-19 0z m-19 19l19 0 0-19-19 0z m-19 19l19 0 0-19-19 0z m-19 19l19 0 0-19-19 0z m-19 19l19 0 0-19-19 0z m-19 19l19 0 0-19-19 0z m-19 19l19 0 0-19-19 0z m-19 19l19 0 0-19-19 0z m-19 19l19 0 0-19-19 0z m-19 19l19 0 0-19-19 0z m-19 19l19 0 0-19-19 0z m-37-19l0 19 19 0 0-19z m-19-19l0 19 19 0 0-19z m-19-19l0 19 19 0 0-19z m-19-19l0 19 19 0 0-19z m-19-19l0 19 19 0 0-19z m-19-19l0 19 19 0 0-19z m-19-19l0 19 19 0 0-19z m-19-19l0 19 19 0 0-19z m-19-19l0 19 19 0 0-19z m-19-19l0 19 19 0 0-19z m-19-19l0 19 19 0 0-19z m-19-19l0 19 19 0 0-19z m-19-19l0 19 19 0 0-19z m247 266l18 0 0-19-18 0z"/>
<glyph glyph-name="arrow-chevron-slim-down" unicode="&#69;" d="M493 370l0 19 19 0 0-19z m-19-19l0 19 19 0 0-19z m-19-19l0 19 19 0 0-19z m-19-19l0 19 19 0 0-19z m-19-19l0 19 19 0 0-19z m-19-19l0 19 19 0 0-19z m-19-19l0 19 19 0 0-19z m-19-19l0 19 19 0 0-19z m-19-19l0 19 19 0 0-19z m-19-19l0 19 19 0 0-19z m-19-19l0 19 19 0 0-19z m-19-19l0 19 19 0 0-19z m-19-19l0 19 19 0 0-19z m-18-19l0 19 18 0 0-19z m-19 38l19 0 0-19-19 0z m-19 19l19 0 0-19-19 0z m-19 19l19 0 0-19-19 0z m-19 19l19 0 0-19-19 0z m-19 19l19 0 0-19-19 0z m-19 19l19 0 0-19-19 0z m-19 19l19 0 0-19-19 0z m-19 19l19 0 0-19-19 0z m-19 19l19 0 0-19-19 0z m-19 19l19 0 0-19-19 0z m-19 19l19 0 0-19-19 0z m-19 19l19 0 0-19-19 0z m-19 19l19 0 0-19-19 0z"/>
<glyph glyph-name="arrow-chevron-slim-left" unicode="&#70;" d="M161 228l-19 0 0 19 19 0z m19-19l-19 0 0 19 19 0z m19-19l-19 0 0 19 19 0z m19-19l-19 0 0 19 19 0z m19-19l-19 0 0 19 19 0z m19-19l-19 0 0 19 19 0z m19-19l-19 0 0 19 19 0z m19-19l-19 0 0 19 19 0z m19-19l-19 0 0 19 19 0z m19-19l-19 0 0 19 19 0z m19-19l-19 0 0 19 19 0z m19-19l-19 0 0 19 19 0z m19-19l-19 0 0 19 19 0z m-266 247l0 18 19 0 0-18z m38 37l0-19-19 0 0 19z m19 19l0-19-19 0 0 19z m19 19l0-19-19 0 0 19z m19 19l0-19-19 0 0 19z m19 19l0-19-19 0 0 19z m19 19l0-19-19 0 0 19z m19 19l0-19-19 0 0 19z m19 19l0-19-19 0 0 19z m19 19l0-19-19 0 0 19z m19 19l0-19-19 0 0 19z m19 19l0-19-19 0 0 19z m19 19l0-19-19 0 0 19z m19 19l0-19-19 0 0 19z"/>
<glyph glyph-name="arrow-chevron-slim-right" unicode="&#71;" d="M370 247l0 18 19 0 0-18z m-19-19l0 19 19 0 0-19z m-19-19l0 19 19 0 0-19z m-19-19l0 19 19 0 0-19z m-19-19l0 19 19 0 0-19z m-19-19l0 19 19 0 0-19z m-19-19l0 19 19 0 0-19z m-19-19l0 19 19 0 0-19z m-19-19l0 19 19 0 0-19z m-19-19l0 19 19 0 0-19z m-19-19l0 19 19 0 0-19z m-19-19l0 19 19 0 0-19z m-19-19l0 19 19 0 0-19z m-19-19l0 19 19 0 0-19z m228 284l19 0 0-19-19 0z m-19 19l19 0 0-19-19 0z m-19 19l19 0 0-19-19 0z m-19 19l19 0 0-19-19 0z m-19 19l19 0 0-19-19 0z m-19 19l19 0 0-19-19 0z m-19 19l19 0 0-19-19 0z m-19 19l19 0 0-19-19 0z m-19 19l19 0 0-19-19 0z m-19 19l19 0 0-19-19 0z m-19 19l19 0 0-19-19 0z m-19 19l19 0 0-19-19 0z m-19 19l19 0 0-19-19 0z"/>
<glyph glyph-name="arrow-chevron-pixel-top" unicode="&#72;" d="M478 119l0 35 34 0 0-35z m-34 69l34 0 0-34-34 0z m-34 34l34 0 0-34-34 0z m-35 34l35 0 0-34-35 0z m-34 34l34 0 0-34-34 0z m-34 34l34 0 0-34-34 0z m-34 34l34 0 0-34-34 0z m-68-34l0 34 34 0 0-34z m-34-34l0 34 34 0 0-34z m-34-34l0 34 34 0 0-34z m-35-34l0 34 35 0 0-34z m-34-34l0 34 34 0 0-34z m-34-34l0 34 34 0 0-34z m-34-35l0 35 34 0 0-35z m239 274l34 0 0-35-34 0z"/>
<glyph glyph-name="arrow-chevron-pixel-down" unicode="&#73;" d="M478 358l0 35 34 0 0-35z m-34-34l0 34 34 0 0-34z m-34-34l0 34 34 0 0-34z m-35-34l0 34 35 0 0-34z m-34-34l0 34 34 0 0-34z m-34-34l0 34 34 0 0-34z m-34-34l0 34 34 0 0-34z m-34-35l0 35 34 0 0-35z m-34 69l34 0 0-34-34 0z m-34 34l34 0 0-34-34 0z m-34 34l34 0 0-34-34 0z m-35 34l35 0 0-34-35 0z m-34 34l34 0 0-34-34 0z m-34 34l34 0 0-34-34 0z m-34 35l34 0 0-35-34 0z"/>
<glyph glyph-name="arrow-chevron-pixel-left" unicode="&#74;" d="M188 205l-34 0 0 34 34 0z m34-34l-34 0 0 34 34 0z m34-34l-34 0 0 34 34 0z m34-35l-34 0 0 35 34 0z m34-34l-34 0 0 34 34 0z m34-34l-34 0 0 34 34 0z m35-34l-35 0 0 34 35 0z m-274 239l0 34 35 0 0-34z m69 68l0-34-34 0 0 34z m34 34l0-34-34 0 0 34z m34 34l0-34-34 0 0 34z m34 35l0-35-34 0 0 35z m34 34l0-34-34 0 0 34z m34 34l0-34-34 0 0 34z m35 34l0-34-35 0 0 34z"/>
<glyph glyph-name="arrow-chevron-pixel-right" unicode="&#75;" d="M358 239l0 34 35 0 0-34z m-34-34l0 34 34 0 0-34z m-34-34l0 34 34 0 0-34z m-34-34l0 34 34 0 0-34z m-34-35l0 35 34 0 0-35z m-34-34l0 34 34 0 0-34z m-34-34l0 34 34 0 0-34z m-35-34l0 34 35 0 0-34z m205 307l34 0 0-34-34 0z m-34 34l34 0 0-34-34 0z m-34 34l34 0 0-34-34 0z m-34 35l34 0 0-35-34 0z m-34 34l34 0 0-34-34 0z m-34 34l34 0 0-34-34 0z m-35 34l35 0 0-34-35 0z"/>
<glyph glyph-name="arrow-chevron-pixel-left2" unicode="&#76;" d="M228 171l-57 0 0 57 57 0z m56-57l-56 0 0 57 56 0z m57-57l-57 0 0 57 57 0z m57-57l-57 0 0 57 57 0z m-284 228l0 56 57 0 0-56z m114 113l0-57-57 0 0 57z m56 57l0-57-56 0 0 57z m57 57l0-57-57 0 0 57z m57 57l0-57-57 0 0 57z"/>
<glyph glyph-name="arrow-pixel-fat-top" unicode="&#77;" d="M419 279l0 47 46 0 0-47z m-47 93l47 0 0-46-47 0z m-46 47l46 0 0-47-46 0z m-47-419l-46 0 0 419-47 0 0 46 47 0 0 47 46 0 0-47 47 0 0-46-47 0z m-139 372l0 47 46 0 0-47z m-47-46l0 46 47 0 0-46z m-46-47l0 47 46 0 0-47z"/>
<glyph glyph-name="arrow-pixel-fat-down" unicode="&#78;" d="M419 186l0 47 46 0 0-47z m-47-46l0 46 47 0 0-46z m-46-47l0 47 46 0 0-47z m-47-46l0-47-46 0 0 47-47 0 0 46 47 0 0 419 46 0 0-419 47 0 0-46z m-139 93l46 0 0-47-46 0z m-47 46l47 0 0-46-47 0z m-46 47l46 0 0-47-46 0z"/>
<glyph glyph-name="arrow-line-med-left" unicode="&#79;" d="M512 268l0-24-465 0 0-23-24 0 0 23-23 0 0 24 23 0 0 23 24 0 0-23z m-442-70l-23 0 0 23 23 0z m23-23l-23 0 0 23 23 0z m23-24l-23 0 0 24 23 0z m24-23l-24 0 0 23 24 0z m23-23l-23 0 0 23 23 0z m23-24l-23 0 0 24 23 0z m23-23l-23 0 0 23 23 0z m24-23l-24 0 0 23 24 0z m-163 279l0-23-23 0 0 23z m23 23l0-23-23 0 0 23z m23 24l0-24-23 0 0 24z m24 23l0-23-24 0 0 23z m23 23l0-23-23 0 0 23z m23 24l0-24-23 0 0 24z m23 23l0-23-23 0 0 23z m24 23l0-23-24 0 0 23z"/>
<glyph glyph-name="arrow-line-med-right" unicode="&#80;" d="M489 244l0-23-24 0 0 23-465 0 0 24 465 0 0 23 24 0 0-23 23 0 0-24z m-47-46l0 23 23 0 0-23z m-23-23l0 23 23 0 0-23z m-23-24l0 24 23 0 0-24z m-24-23l0 23 24 0 0-23z m-23-23l0 23 23 0 0-23z m-23-24l0 24 23 0 0-24z m-23-23l0 23 23 0 0-23z m-24-23l0 23 24 0 0-23z m163 279l23 0 0-23-23 0z m-23 23l23 0 0-23-23 0z m-23 24l23 0 0-24-23 0z m-24 23l24 0 0-23-24 0z m-23 23l23 0 0-23-23 0z m-23 24l23 0 0-24-23 0z m-23 23l23 0 0-23-23 0z m-24 23l24 0 0-23-24 0z"/>
<glyph glyph-name="arrow-line-med-top" unicode="&#81;" d="M454 279l0 24 23 0 0-24z m-23 47l23 0 0-23-23 0z m-24 23l24 0 0-23-24 0z m-23 23l23 0 0-23-23 0z m-23 24l23 0 0-24-23 0z m-24 23l24 0 0-23-24 0z m-23 23l23 0 0-23-23 0z m-23 23l23 0 0-23-23 0z m-23-465l-24 0 0 465-23 0 0 24 23 0 0 23 24 0 0-23 23 0 0-24-23 0z m-70 442l0 23 23 0 0-23z m-23-23l0 23 23 0 0-23z m-24-23l0 23 24 0 0-23z m-23-24l0 24 23 0 0-24z m-23-23l0 23 23 0 0-23z m-24-23l0 23 24 0 0-23z m-23-23l0 23 23 0 0-23z m-23-24l0 24 23 0 0-24z"/>
<glyph glyph-name="arrow-line-med-down" unicode="&#82;" d="M454 209l0 24 23 0 0-24z m-23-23l0 23 23 0 0-23z m-24-23l0 23 24 0 0-23z m-23-23l0 23 23 0 0-23z m-23-24l0 24 23 0 0-24z m-24-23l0 23 24 0 0-23z m-23-23l0 23 23 0 0-23z m-23-23l0 23 23 0 0-23z m-23-24l0-23-24 0 0 23-23 0 0 24 23 0 0 465 24 0 0-465 23 0 0-24z m-70 47l23 0 0-23-23 0z m-23 23l23 0 0-23-23 0z m-24 23l24 0 0-23-24 0z m-23 24l23 0 0-24-23 0z m-23 23l23 0 0-23-23 0z m-24 23l24 0 0-23-24 0z m-23 23l23 0 0-23-23 0z m-23 24l23 0 0-24-23 0z"/>
<glyph glyph-name="arrow-line-left" unicode="&#83;" d="M494 247l-457 0 0-18-19 0 0 18-18 0 0 18 18 0 0 18 19 0 0-18 475 0 0-18z m-439-37l-18 0 0 19 18 0z m18-18l-18 0 0 18 18 0z m18-18l-18 0 0 18 18 0z m19-19l-19 0 0 19 19 0z m18-18l-18 0 0 18 18 0z m18-18l-18 0 0 18 18 0z m19-18l-19 0 0 18 19 0z m18-19l-18 0 0 19 18 0z m18-18l-18 0 0 18 18 0z m18-18l-18 0 0 18 18 0z m19-19l-19 0 0 19 19 0z m18-18l-18 0 0 18 18 0z m-201 293l0-19-18 0 0 19z m18 18l0-18-18 0 0 18z m18 18l0-18-18 0 0 18z m19 19l0-19-19 0 0 19z m18 18l0-18-18 0 0 18z m18 18l0-18-18 0 0 18z m19 18l0-18-19 0 0 18z m18 19l0-19-18 0 0 19z m18 18l0-18-18 0 0 18z m18 18l0-18-18 0 0 18z m19 19l0-19-19 0 0 19z m18 18l0-18-18 0 0 18z"/>
<glyph glyph-name="arrow-line-right" unicode="&#84;" d="M494 247l0-18-19 0 0 18-475 0 0 18 475 0 0 18 19 0 0-18 18 0 0-18z m-37-37l0 19 18 0 0-19z m-18-18l0 18 18 0 0-18z m-18-18l0 18 18 0 0-18z m-19-19l0 19 19 0 0-19z m-18-18l0 18 18 0 0-18z m-18-18l0 18 18 0 0-18z m-19-18l0 18 19 0 0-18z m-18-19l0 19 18 0 0-19z m-18-18l0 18 18 0 0-18z m-18-18l0 18 18 0 0-18z m-19-19l0 19 19 0 0-19z m-18-18l0 18 18 0 0-18z m201 293l18 0 0-19-18 0z m-18 18l18 0 0-18-18 0z m-18 18l18 0 0-18-18 0z m-19 19l19 0 0-19-19 0z m-18 18l18 0 0-18-18 0z m-18 18l18 0 0-18-18 0z m-19 18l19 0 0-18-19 0z m-18 19l18 0 0-19-18 0z m-18 18l18 0 0-18-18 0z m-18 18l18 0 0-18-18 0z m-19 19l19 0 0-19-19 0z m-18 18l18 0 0-18-18 0z"/>
<glyph glyph-name="arrow-line-top" unicode="&#85;" d="M485 256l0 18 18 0 0-18z m-19 37l19 0 0-19-19 0z m-18 18l18 0 0-18-18 0z m-18 18l18 0 0-18-18 0z m-19 18l19 0 0-18-19 0z m-18 19l18 0 0-19-18 0z m-18 18l18 0 0-18-18 0z m-18 18l18 0 0-18-18 0z m-19 19l19 0 0-19-19 0z m-18 18l18 0 0-18-18 0z m-18 18l18 0 0-18-18 0z m-19 18l19 0 0-18-19 0z m-18-18l0-457-18 0 0 475-18 0 0 19 18 0 0 18 18 0 0-18 18 0 0-19-18 0z m-55 0l0 18 19 0 0-18z m-18-18l0 18 18 0 0-18z m-18-18l0 18 18 0 0-18z m-19-19l0 19 19 0 0-19z m-18-18l0 18 18 0 0-18z m-18-18l0 18 18 0 0-18z m-18-19l0 19 18 0 0-19z m-19-18l0 18 19 0 0-18z m-18-18l0 18 18 0 0-18z m-18-18l0 18 18 0 0-18z m-19-19l0 19 19 0 0-19z m-18-18l0 18 18 0 0-18z"/>
<glyph glyph-name="arrow-line-down" unicode="&#86;" d="M485 238l0 18 18 0 0-18z m-19-19l0 19 19 0 0-19z m-18-18l0 18 18 0 0-18z m-18-18l0 18 18 0 0-18z m-19-18l0 18 19 0 0-18z m-18-19l0 19 18 0 0-19z m-18-18l0 18 18 0 0-18z m-18-18l0 18 18 0 0-18z m-19-19l0 19 19 0 0-19z m-18-18l0 18 18 0 0-18z m-18-18l0 18 18 0 0-18z m-19-18l0 18 19 0 0-18z m-18-19l0-18-18 0 0 18-18 0 0 19 18 0 0 475 18 0 0-475 18 0 0-19z m-55 37l19 0 0-18-19 0z m-18 18l18 0 0-18-18 0z m-18 18l18 0 0-18-18 0z m-19 19l19 0 0-19-19 0z m-18 18l18 0 0-18-18 0z m-18 18l18 0 0-18-18 0z m-18 19l18 0 0-19-18 0z m-19 18l19 0 0-18-19 0z m-18 18l18 0 0-18-18 0z m-18 18l18 0 0-18-18 0z m-19 19l19 0 0-19-19 0z m-18 18l18 0 0-18-18 0z"/>
<glyph glyph-name="arrow-chevron-pixel-top2" unicode="&#87;" d="M455 114l0 57 57 0 0-57z m-57 114l57 0 0-57-57 0z m-57 56l57 0 0-56-57 0z m-57 57l57 0 0-57-57 0z m-113-57l0 57 57 0 0-57z m-57-56l0 56 57 0 0-56z m-57-57l0 57 57 0 0-57z m-57-57l0 57 57 0 0-57z m228 284l56 0 0-57-56 0z"/>
<glyph glyph-name="arrow-chevron-pixel-down2" unicode="&#88;" d="M455 341l0 57 57 0 0-57z m-57-57l0 57 57 0 0-57z m-57-56l0 56 57 0 0-56z m-57-57l0 57 57 0 0-57z m-56-57l0 57 56 0 0-57z m-57 114l57 0 0-57-57 0z m-57 56l57 0 0-56-57 0z m-57 57l57 0 0-57-57 0z m-57 57l57 0 0-57-57 0z"/>
<glyph glyph-name="arrow-chevron-pixel-right2" unicode="&#89;" d="M341 228l0 56 57 0 0-56z m-57-57l0 57 57 0 0-57z m-56-57l0 57 56 0 0-57z m-57-57l0 57 57 0 0-57z m-57-57l0 57 57 0 0-57z m170 341l57 0 0-57-57 0z m-56 57l56 0 0-57-56 0z m-57 57l57 0 0-57-57 0z m-57 57l57 0 0-57-57 0z"/>
<glyph glyph-name="arrow-pixel-fat-left" unicode="&#90;" d="M512 282l0-52-410 0 0-51-51 0 0 51-51 0 0 52 51 0 0 51 51 0 0-51z m-358-154l-52 0 0 51 52 0z m51-51l-51 0 0 51 51 0z m51-51l-51 0 0 51 51 0z m-102 358l0-51-52 0 0 51z m51 51l0-51-51 0 0 51z m51 51l0-51-51 0 0 51z"/>
<glyph glyph-name="arrow-pixel-fat-right" unicode="&#48;" d="M461 230l0-51-51 0 0 51-410 0 0 52 410 0 0 51 51 0 0-51 51 0 0-52z m-103-102l0 51 52 0 0-51z m-51-51l0 51 51 0 0-51z m-51-51l0 51 51 0 0-51z m102 358l52 0 0-51-52 0z m-51 51l51 0 0-51-51 0z m-51 51l51 0 0-51-51 0z"/>
<glyph glyph-name="play-outline-triangle" unicode="&#49;" d="M144 387l210-131-210-131 0 262m-16 29l0-320 256 160z"/>
<glyph glyph-name="arrow-thin-up" unicode="&#51;" d="M350 322c-3-3-8-3-12 0l-74 67 0-285c0-4-4-8-8-8-4 0-8 4-8 8l0 285-74-67c-4-3-8-3-12 0-3 3-3 9 0 12 0 0 87 79 88 80 1 0 3 2 6 2 3 0 5-2 6-2 1-1 88-80 88-80 1-2 2-4 2-6 0-2-1-4-2-6z"/>
<glyph glyph-name="arrow-thin-right" unicode="&#52;" d="M322 162c-3 3-3 8 0 12l67 74-285 0c-4 0-8 4-8 8 0 4 4 8 8 8l285 0-67 74c-3 4-3 8 0 12 3 3 9 3 12 0 0 0 79-87 80-88 0-1 2-3 2-6 0-3-2-5-2-6-1-1-80-88-80-88-2-1-4-2-6-2-2 0-4 1-6 2z"/>
<glyph glyph-name="arrow-thin-left" unicode="&#53;" d="M190 162c3 3 3 8 0 12l-67 74 285 0c4 0 8 4 8 8 0 4-4 8-8 8l-285 0 67 74c3 4 3 8 0 12-3 3-9 3-12 0 0 0-79-87-80-88 0-1-2-3-2-6 0-3 2-5 2-6 1-1 80-88 80-88 2-1 4-2 6-2 2 0 4 1 6 2z"/>
<glyph glyph-name="arrow-thin-down" unicode="&#54;" d="M350 190c-3 3-8 3-12 0l-74-67 0 285c0 4-4 8-8 8-4 0-8-4-8-8l0-285-74 67c-4 3-8 3-12 0-3-3-3-9 0-12 0 0 87-79 88-80 1 0 3-2 6-2 3 0 5 2 6 2 1 1 88 80 88 80 1 2 2 4 2 6 0 2-1 4-2 6z"/>
<glyph glyph-name="arrow-chevron-small-right" unicode="&#55;" d="M160 397l21 19 171-160-171-160-21 19 151 141z"/>
<glyph glyph-name="arrow-chevron-small-left" unicode="&#56;" d="M352 397l-21 19-171-160 171-160 21 19-150 141z"/>
<glyph glyph-name="arrow-chevron-small-down" unicode="&#33;" d="M397 352l19-21-160-171-160 171 19 21 141-151z"/>
<glyph glyph-name="play-triangle" unicode="&#35;" d="M128 416l0-320 256 160z"/>
<glyph glyph-name="play-triangle-1" unicode="&#36;" d="M405 279l-278 166c-4 2-7 3-11 3-11 0-20-9-20-20l0 0 0-344 0 0c0-11 9-20 20-20 4 0 7 1 11 3l278 166c7 5 11 14 11 23 0 9-4 17-11 23z"/>
<glyph glyph-name="play-triangle-2" unicode="&#37;" d="M160 448l192-192-192-192z"/>
<glyph glyph-name="arrow-backward" unicode="&#38;" d="M384 512l-144-256 144-256-112 0-144 256 144 256z"/>
<glyph glyph-name="check-mark" unicode="&#39;" d="M462 402c1-2 2-4 2-6 0-2-1-4-2-6l-249-320c-2-2-5-6-9-6-4 0-8 3-10 5-2 2-141 136-141 136l-3 3c-1 2-2 4-2 6 0 2 1 3 2 5l2 2c14 15 42 44 44 46 2 2 4 6 8 6 4 0 8-4 10-6 2-2 80-78 80-78l200 257c2 2 4 2 6 2 2 0 5-1 7-2z"/>
<glyph glyph-name="check-mark-1" unicode="&#40;" d="M227 182c-2-2-6-4-9-4-3 0-7 2-9 4l-56 56 18 18 47-47 125 126 17-18z"/>
<glyph glyph-name="code-working" unicode="&#41;" d="M336 144c-4 0-8 2-11 5-6 6-6 16 0 22l84 85-84 85c-6 6-6 16 0 22 6 6 16 6 22 0l96-96c6-6 6-16 0-22l-96-96c-3-3-7-5-11-5z m-160 0c-4 0-8 2-11 5l-96 96c-6 6-6 16 0 22l96 96c6 6 16 6 22 0 6-6 6-16 0-22l-84-85 84-85c6-6 6-16 0-22-3-3-7-5-11-5z m-16 112c0 16 8 24 24 24 16 0 24-8 24-24 0-16-8-24-24-24-16 0-24 8-24 24z m72 0c0 16 8 24 24 24 16 0 24-8 24-24 0-16-8-24-24-24-16 0-24 8-24 24z m72 0c0 16 8 24 24 24 16 0 24-8 24-24 0-16-8-24-24-24-16 0-24 8-24 24z"/>
<glyph glyph-name="code" unicode="&#42;" d="M304 144c-4 0-8 2-11 5-6 6-6 16 0 22l84 85-84 85c-6 6-6 16 0 22 6 6 16 6 22 0l96-96c6-6 6-16 0-22l-96-96c-3-3-7-5-11-5z m-96 0c-4 0-8 2-11 5l-96 96c-6 6-6 16 0 22l96 96c6 6 16 6 22 0 6-6 6-16 0-22l-84-85 84-85c6-6 6-16 0-22-3-3-7-5-11-5z"/>
<glyph glyph-name="circle-plus-outline-1" unicode="&#46;" d="M256 464c115 0 208-93 208-208 0-115-93-208-208-208-115 0-208 93-208 208 0 115 93 208 208 208z m0-399c105 0 191 86 191 191 0 105-86 191-191 191-105 0-191-86-191-191 0-105 86-191 191-191z m8 319l0-120 120 0 0-17-120 0 0-119-17 0 0 119-119 0 0 17 119 0 0 120z"/>
<glyph glyph-name="plus-circle" unicode="&#47;" d="M256 480c124 0 224-100 224-224 0-124-100-224-224-224-124 0-224 100-224 224 0 124 100 224 224 224z m128-240l0 32-112 0 0 112-32 0 0-112-112 0 0-32 112 0 0-112 32 0 0 112z"/>
<glyph glyph-name="hamburger-3" unicode="&#50;" d="M243 0c-65 0-126 25-172 71-46 46-71 107-71 172 0 65 25 126 71 172 46 46 107 72 172 72 65 0 126-26 172-72 46-46 71-107 71-172 0-65-25-126-71-172-46-46-107-71-172-71z m0 461c-120 0-217-98-217-218 0-120 97-217 217-217 120 0 218 97 218 217 0 120-98 218-218 218z m128-154l-256 0c-7 0-13 6-13 13 0 7 6 13 13 13l256 0c7 0 13-6 13-13 0-7-6-13-13-13z m0-76l-256 0c-7 0-13 5-13 12 0 7 6 13 13 13l256 0c7 0 13-6 13-13 0-7-6-12-13-12z m0-77l-256 0c-7 0-13 5-13 13 0 7 6 12 13 12l256 0c7 0 13-5 13-12 0-8-6-13-13-13z"/>
<glyph glyph-name="arrow-circle-right" unicode="&#57;" d="M223 114l137 136 0 12-137 136-12-12 130-130-130-130z m33-114c0 0 0 0 0 0 68 0 133 27 181 75 48 48 75 113 75 181 0 68-27 133-75 181-48 48-113 75-181 75 0 0 0 0 0 0-68 0-133-27-181-75-48-48-75-113-75-181 0-68 27-133 75-181 48-48 113-75 181-75z m-170 426c46 45 106 70 170 70 0 0 0 0 0 0 64 0 124-25 170-70 45-46 70-106 70-170 0-64-25-124-70-170-46-45-106-70-170-70l0 0c0 0 0 0 0 0-64 0-124 25-170 70-45 46-70 106-70 170 0 64 25 124 70 170z"/>
<glyph glyph-name="flower-design" unicode="&#34;" d="M437 261c34 22 58 57 67 98l2 9-8 5c-24 13-51 20-78 20-13 0-26-2-38-5 8 40 0 81-22 116l-5 8-9-3c-41-11-74-38-95-73-22 34-56 59-98 68l-9 2-5-8c-20-36-25-78-15-118-39 8-81 1-116-21l-8-5 3-9c11-40 36-73 71-93-34-22-58-57-67-97l-2-9 8-5c24-13 51-20 78-20 14 0 27 2 40 5-9-40-2-82 21-118l5-8 9 3c40 11 73 37 94 72 22-34 56-58 97-68l9-2 5 8c21 37 26 79 15 119 11-2 22-4 34-4 29 0 58 9 84 25l8 5-3 9c-11 40-37 74-72 94z m-97-152c-4-5-8-11-12-17-8 1-15 2-21 2-16 2-25 3-33 12 0 1 0 1 0 1 1 3 2 5 3 8 16 41 9 72-6 100 0 1 1 2 1 3 2-1 3-2 5-2 11-29 29-55 69-70 2-1 5-2 7-3 2-13-3-20-13-34z m-170 293c4 5 8 11 12 18 8-1 15-2 22-3 16-2 25-3 33-13-1-2-1-5-2-7-16-40-9-71 5-98-1-2-1-4-2-5-1 0-2 1-2 1-12 30-29 56-70 72-3 1-6 2-8 2 0 0-1 1-1 1-1 12 4 19 13 32z m97-157l-8 2-3-6-4 6-7-1 2 7-5 3 5 3-2 7 6-2 5 8 4-7 6 1-2-5 7-4-6-4z m150 63c-2-16-3-25-12-33-2 1-5 3-8 4-15 6-29 8-43 8-20 0-38-5-57-15-1 1-2 1-3 2 0 0 0 1 0 1 31 11 58 29 74 71 1 3 2 5 2 8 1 0 1 1 1 1 1 0 2 0 3 0 9 0 15-4 28-13 5-4 11-8 18-12-2-8-2-15-3-22z m-69 67c-3-1-5-2-8-3-41-18-57-46-67-77 0 0-1 0-1 0-1 1-2 3-2 4 12 29 18 60 0 99-1 2-2 5-3 7 7 10 17 12 33 14 6 1 13 3 21 4 5-6 9-12 13-17 10-12 15-19 15-30 0 0-1 0-1-1z m-214-27c1 0 2 0 3 0 1-3 2-5 3-8 18-40 45-57 75-66 1-1 1-2 2-4-1 0-1 0-2 0-18 8-35 13-53 13-16 0-32-4-49-11-3-2-6-3-8-4-9 7-10 16-13 31-1 6-2 13-4 21 7 5 12 9 17 13 13 10 20 15 29 15z m-40-143c2 16 3 25 11 32 0 0 1 0 1 0 2-1 5-2 8-3 16-6 30-9 44-9 21 0 39 6 58 16 0-1 1-1 1-1 0-1 0-2-1-4-30-11-56-29-72-70-1-2-2-5-2-7-2 0-3-1-4-1-10 0-16 5-29 14-5 4-11 8-18 12 2 8 3 15 3 21z m69-67c0 0 0 0 0 0 3 1 6 2 8 3 40 18 57 45 66 75 1 1 2 1 3 1 1-1 1-2 2-3-14-29-20-60-2-100 1-3 3-6 4-8 0 0 0 0 0 0-7-9-16-11-32-13-7-1-13-2-21-4-5 6-9 12-13 17-10 13-16 20-15 32z m214 26c-1 0-2 0-4 0 0 3-1 5-2 7-18 40-44 56-74 66 0 2-1 3-2 5 1 0 2 1 3 1 17-8 34-12 52-12 15 0 31 3 48 11 3 1 5 2 8 4 10-8 11-17 14-33 1-6 2-13 4-21-7-5-12-9-17-13-13-10-20-15-30-15z m100 191c-7-23-19-42-36-58 1 3 1 6 1 8 1 9 2 18 5 28l2 9-9 5c-9 5-16 11-23 15-2 2-4 3-7 5 23 2 46-2 67-12z m-134 127c12-21 17-44 16-66-2 2-3 4-5 6-5 7-11 14-16 23l-6 8-9-3c-10-3-19-4-27-5-3-1-6-1-8-2 14 17 33 31 55 39z m-186-5c23-7 42-19 58-36-3 1-6 1-8 1-9 1-18 2-28 5l-9 2-5-9c-5-9-11-16-15-23-2-2-4-4-5-7-2 23 2 46 12 67z m-127-134c20 10 43 16 66 15-2-2-4-3-7-5-6-5-13-11-22-16l-8-5 2-10c3-10 5-19 6-27 0-3 1-5 1-8-17 15-30 34-38 56z m4-184c7 22 20 42 36 57 0-2-1-5-1-8-1-8-2-17-4-27l-2-10 8-4c9-6 17-11 23-16 2-1 5-3 7-4-23-2-46 2-67 12z m134-128c-11 20-16 43-15 65 1-2 3-4 5-6 5-6 11-14 16-23l5-8 10 3c10 3 19 4 27 6 3 0 5 0 8 1-15-17-34-31-56-38z m185 4c-22 6-42 19-57 35 2 0 5-1 8-1 8-1 17-2 27-4l10-2 4 8c6 9 11 17 16 23 1 3 3 5 5 7 1-22-3-45-13-66z m63 119c2 2 4 3 6 5 7 5 14 11 23 16l8 6-2 9c-3 10-5 19-6 27-1 3-1 6-1 8 17-15 30-34 38-56-20-10-43-15-66-15z"/>
<glyph glyph-name="checkmark-circled" unicode="&#43;" d="M256 480c-124 0-224-100-224-224 0-124 100-224 224-224 124 0 224 100 224 224 0 124-100 224-224 224z m115-149l-139-179c-1-1-3-3-5-3-3 0-4 1-5 3-2 1-79 76-79 76l-2 1c0 1-1 2-1 3 0 2 1 3 1 4 1 0 1 0 1 1 8 8 24 24 25 25 1 2 2 3 4 3 3 0 5-2 6-3 1-1 45-43 45-43l111 143c1 0 2 1 4 1 1 0 2 0 3-1l31-24c0-1 1-3 1-4 0-1 0-2-1-3z"/>
<glyph glyph-name="close-circled" unicode="&#44;" d="M256 479c-124 0-224-100-224-224 0-124 100-224 224-224 124 0 224 100 224 224 0 124-100 224-224 224z m108-300c2-1 3-3 3-5 0-2-1-4-3-6l-21-21c-2-2-4-3-6-3-2 0-4 1-5 3l-76 75-75-76c-2-1-4-2-6-2-2 0-4 1-6 2l-21 22c-2 2-2 4-2 6 0 2 0 4 2 5l76 76-76 75c-3 3-3 9 0 12l21 21c2 2 4 3 6 3 2 0 4-1 5-3l76-74 76 74c1 2 3 3 5 3 3 0 5-1 6-3l22-21c3-3 3-9 0-12l-76-75z"/>
</font>
</defs>
</svg>
