<svg xmlns="http://www.w3.org/2000/svg" width="15.157" height="15.187" viewBox="0 0 15.157 15.187">
  <defs>
    <style>
      .cls-1 {
        fill: #444;
        fill-rule: evenodd;
      }
    </style>
  </defs>
  <path id="custom" class="cls-1" d="M900.109,276.087a3.154,3.154,0,0,1,3.227-.829l-1.895,1.835,0.5,1.777,1.865,0.5,1.9-1.835a2.911,2.911,0,0,1-.889,3.108,3.119,3.119,0,0,1-3.256.829l-0.415.414-1.687-1.6-0.888.828-0.533-.532,1.243-1.214h0a3.027,3.027,0,0,1,.829-3.286h0Zm-6.365,13a1.645,1.645,0,0,1-2.25,0,1.488,1.488,0,0,1-.444-1.1,1.456,1.456,0,0,1,.444-1.066l3.79-3.641,2.161,2.19Zm2.961-5.624,0.888-.83-4.234-4.085-0.977-.5-1.362-2.073,0.356-.325,2.161,1.3,0.474,0.947,4.233,4.086,0.859-.829,7.075,6.839-2.4,2.31Z" transform="translate(-891.031 -275.125)"/>
</svg>
