<svg xmlns="http://www.w3.org/2000/svg" width="52.91" height="44.051" viewBox="0 0 52.91 44.051">
  <path id="Path_1" data-name="Path 1" d="M57.832-45.4q.123.123,0,.123L52.664-24.24a.965.965,0,0,1-.984.738H20.18a2.5,2.5,0,0,0-1.846.738,2.951,2.951,0,0,0-.615,1.723,2.361,2.361,0,0,0,.738,1.723,2.361,2.361,0,0,0,1.723.738H51.926a4.316,4.316,0,0,1,3.261,1.354,4.479,4.479,0,0,1,1.292,3.2,4.42,4.42,0,0,1-1.292,3.261,4.42,4.42,0,0,1-3.261,1.292,4.479,4.479,0,0,1-3.2-1.292,4.316,4.316,0,0,1-1.354-3.261,4.271,4.271,0,0,1,.861-2.461H23.871a4.34,4.34,0,0,1,.738,2.461,4.328,4.328,0,0,1-1.23,3.2,4.374,4.374,0,0,1-3.2,1.354,4.42,4.42,0,0,1-3.261-1.292,4.42,4.42,0,0,1-1.292-3.261,4.328,4.328,0,0,1,1.23-3.2.355.355,0,0,0,.246-.123.355.355,0,0,1,.246-.123,4.317,4.317,0,0,1-1.723-3.568,4.328,4.328,0,0,1,1.23-3.2,7.957,7.957,0,0,1,1.969-1.107L13.9-45.281l-1.6-6.152H6.152a.979.979,0,0,1-1.107-1.107q0-.984,1.107-.984h7.014a.86.86,0,0,1,.984.738l1.6,6.275h8.244a.87.87,0,0,1,.984.984.87.87,0,0,1-.984.984H16.242l4.676,18.949h29.9l4.676-18.949H47.865q-1.107,0-1.107-.984t1.107-.984h9.352l.123.123a.109.109,0,0,0,.123.123.355.355,0,0,1,.246.123.944.944,0,0,0,.123.369v.123l.123.123ZM50.2-12.3a2.361,2.361,0,0,0,1.723.738,2.361,2.361,0,0,0,1.723-.738,2.361,2.361,0,0,0,.738-1.723,2.361,2.361,0,0,0-.738-1.723,2.361,2.361,0,0,0-1.723-.738,2.361,2.361,0,0,0-1.723.738,2.361,2.361,0,0,0-.738,1.723A2.361,2.361,0,0,0,50.2-12.3Zm-31.746,0a2.361,2.361,0,0,0,1.723.738A2.361,2.361,0,0,0,21.9-12.3a2.361,2.361,0,0,0,.738-1.723A2.361,2.361,0,0,0,21.9-15.75a2.361,2.361,0,0,0-1.723-.738,2.5,2.5,0,0,0-1.846.738,2.951,2.951,0,0,0-.615,1.723A2.361,2.361,0,0,0,18.457-12.3ZM41.59-39.867a1.064,1.064,0,0,1-.738.369.828.828,0,0,1-.738-.369L35.93-44.051l-4.307,4.184q-.123.369-.738.369a1.064,1.064,0,0,1-.738-.369,1.035,1.035,0,0,1,0-1.477l4.307-4.184-4.307-4.184a1.035,1.035,0,0,1,0-1.477q.861-.861,1.477,0L35.93-47l4.184-4.184q.615-.861,1.477,0a1.035,1.035,0,0,1,0,1.477l-4.184,4.184,4.184,4.184A1.035,1.035,0,0,1,41.59-39.867Z" transform="translate(-5.045 53.525)" fill="#bbb"/>
</svg>
