<svg xmlns="http://www.w3.org/2000/svg" width="20" height="20" viewBox="0 0 20 20">
  <path id="Path_1" data-name="Path 1" d="M13.984-17.578a20.63,20.63,0,0,0-4.258,3.242A25.677,25.677,0,0,0,7.578-11.8L4.1-11.133,0-7.031l3.633.078L6.211-9.492a13.282,13.282,0,0,0-.645,1.6,6.228,6.228,0,0,0-.293,1.172l-.039.352L6.367-5.234a9.662,9.662,0,0,0,3.2-1.055L6.953-3.633,7.031,0l4.1-4.1L11.8-7.578a21.077,21.077,0,0,0,2.539-2.148,20.63,20.63,0,0,0,3.242-4.258A5.069,5.069,0,0,1,15.2-15.2,5.069,5.069,0,0,1,13.984-17.578Zm1.367-.742a3.549,3.549,0,0,0,.859,2.07,3.6,3.6,0,0,0,2.109.9,20.79,20.79,0,0,0,1-2.324,13.824,13.824,0,0,0,.527-1.738L20-20A18.853,18.853,0,0,0,15.352-18.32Z" transform="translate(0 20)" fill="#55f563"/>
</svg>
